# xmcd CD database file
#
# Track frame offsets:
#	150
#	13508
#	29604
#	43010
#	54673
#	70482
#	81856
#	94264
#	108637
#	124118
#	133527
#	149818
#
# Disc length: 2142 seconds
#
# Revision: 0
# Processed by: cddbd v1.5.2PL0 Copyright (c) Steve Scherf et al.
# Submitted via: CDex 1.51
#
DISCID=b4085c0c
DTITLE=Terry Stafford - Say Has Anybody Seen My Sweet Gypsy Rose
DYEAR=2007
DGENRE=Country
TTITLE0=Country Canary
TTITLE1=Big In Vegas
TTITLE2=Suspicion
TTITLE3=Aint No Woman Like My Woman
TTITLE4=Shelleys Winter Love
TTITLE5=Amarillo By Morning
TTITLE6=Say Has Anybody Seen My Sweet Gypsy Rose
TTITLE7=Lets Keep The Memories Warm
TTITLE8=Captured
TTITLE9=Easy To Say Hard To Do
TTITLE10=Road House Country Singer
TTITLE11=It Sure Is Bad To Love Her
EXTD=YEAR: 2007
EXTT0=
EXTT1=
EXTT2=
EXTT3=
EXTT4=
EXTT5=
EXTT6=
EXTT7=
EXTT8=
EXTT9=
EXTT10=
EXTT11=
PLAYORDER=
